# xmcd CD database file
#
# Track frame offsets:
#	150
#	12427
#	31731
#	51602
#	67872
#	77216
#	91808
#	109735
#	129560
#	158092
#	179307
#	194246
#	262536
#	278572
#	297251
#	309512
#
# Disc length: 4395 seconds
#
# Revision: 0
# Processed by: cddbd v1.5PL3 Copyright (c) Steve Scherf et al.
# Submitted via: CDex 1.51
#
DISCID=d7112910
DTITLE=Blues In The Midnightsun - Blues In The Midnightsun
DYEAR=1900
DGENRE=Blues
TTITLE0=Professor Longhair/ Rocking Penumonia
TTITLE1=Professor Longhair/ They call me Mr. Longhair
TTITLE2=Professor Longhair/ Tipitian
TTITLE3=Professor Longhair/ Tipitian
TTITLE4=Professor Longhair/ Willie Fugals Blues
TTITLE5=Professor Longhair/ Longhair Blues Rhumba
TTITLE6=Professor Longhair/ Tipitina
TTITLE7=Ronnie Earl/ The Stumble
TTITLE8=Albert Collins/ Texas Flood
TTITLE9=Pintetop Perkins/ Down in Mississippi
TTITLE10=Elmore James/ Whose Monday Shoes
TTITLE11=Albert King/ Blues at Sunrise#
TTITLE12=Unknown/ Track 13
TTITLE13=Jimmy Witherspoon/ Stormy Monday
TTITLE14=Earl King/ Take it so hard
TTITLE15=Junior Blues/ Hoodoo Man
EXTD=
EXTT0=
EXTT1=
EXTT2=
EXTT3=
EXTT4=
EXTT5=
EXTT6=
EXTT7=
EXTT8=
EXTT9=
EXTT10=
EXTT11=
EXTT12=
EXTT13=
EXTT14=
EXTT15=
PLAYORDER=
